<?xml version="1.0" encoding="UTF-8"?>
<svg width="800px" height="800px" viewBox="0 0 24 24" version="1.1" xmlns="http://www.w3.org/2000/svg">
    <title>IA Logo</title>
    <g stroke="none" stroke-width="1" fill="none" fill-rule="evenodd">
        <path d="M12,2 C13.3132,2 14.5136,2.25866 15.5941,2.73649 L15.5941,8.18372 L18.2279,5.54993 C19.1507,6.43553 19.8843,7.50608 20.3577,8.69867 L16.5941,12.4623 L20.3577,16.2259 C19.8843,17.4185 19.1507,18.4891 18.2279,19.3747 L15.5941,16.7409 L15.5941,21.2635 C14.5136,21.7413 13.3132,22 12,22 C10.6868,22 9.48641,21.7413 8.40589,21.2635 L8.40589,16.7409 L5.77211,19.3747 C4.84933,18.4891 4.11569,17.4185 3.64228,16.2259 L7.40589,12.4623 L3.64228,8.69867 C4.11569,7.50608 4.84933,6.43553 5.77211,5.54993 L8.40589,8.18372 L8.40589,2.73649 C9.48641,2.25866 10.6868,2 12,2 Z" fill="#4F46E5"/>
        <circle fill="#FFF" cx="12" cy="12" r="3"/>
    </g>
</svg>
